<svg width="101" height="18" viewBox="0 0 101 18" fill="none" xmlns="http://www.w3.org/2000/svg">
<g clip-path="url(#clip0_1_33)">
<path d="M8.35624 17.5363L0 0.463654H4.68302L10.3623 12.9688L16.3736 0.463654H20.6026L12.2395 17.5363H8.36301H8.35624Z" fill="#C1C1C1"/>
<path d="M18.5626 17.5363L26.9121 0.463654H30.7886L39.1517 17.5363H34.8414L28.8571 4.96192L22.8661 17.5363H18.5559H18.5626Z" fill="#C1C1C1"/>
<path d="M42.2624 0.463654H52.4078C53.6141 0.463654 54.651 0.712788 55.5388 1.21106C56.4131 1.70241 57.0908 2.38753 57.5787 3.2595C58.0599 4.13147 58.2971 5.12109 58.2971 6.23528C58.2971 7.41175 58.0193 8.44981 57.4635 9.35639C56.8942 10.263 56.1962 10.9135 55.3558 11.3079L59.1104 17.5363H54.4884L51.2489 11.9861H46.3015V17.5363H42.2691V8.33217H52.4145C52.9567 8.33217 53.404 8.15223 53.7496 7.78545C54.0885 7.41867 54.2647 6.89964 54.2647 6.22836C54.2647 5.55708 54.0817 5.03113 53.709 4.66435C53.3295 4.29756 52.8957 4.11763 52.4145 4.11763H42.2691V0.463654H42.2624Z" fill="#C1C1C1"/>
<path d="M66.4636 16.8305C64.932 16.0554 63.6985 14.9827 62.7768 13.6263C61.8619 12.263 61.4011 10.7266 61.4011 9.00346C61.4011 7.28028 61.8619 5.73702 62.7768 4.38062C63.6917 3.0173 64.9252 1.95156 66.4636 1.17647C68.0088 0.387543 69.7031 0 71.5668 0C73.4305 0 75.1384 0.387543 76.6836 1.17647C78.2152 1.95156 79.4486 3.0173 80.3703 4.38062C81.2852 5.73702 81.7461 7.27336 81.7461 9.00346C81.7461 10.7336 81.2852 12.263 80.3703 13.6263C79.4554 14.9827 78.222 16.0554 76.6836 16.8305C75.1384 17.6055 73.4441 18 71.5668 18C69.6895 18 68.0088 17.6125 66.4636 16.8305ZM74.603 13.4602C75.5314 13.0588 76.2769 12.4844 76.853 11.737C77.4155 10.9827 77.7069 10.0692 77.7069 9.00346C77.7069 7.93772 77.4155 7.0173 76.853 6.2699C76.2769 5.51557 75.5247 4.93426 74.603 4.53979C73.6677 4.13841 72.6579 3.93772 71.5668 3.93772C70.4757 3.93772 69.4794 4.13841 68.5442 4.54671C67.6089 4.9481 66.8567 5.52249 66.2874 6.27682C65.7249 7.03114 65.4335 7.93772 65.4335 8.99654C65.4335 10.0554 65.7249 10.9481 66.2874 11.7093C66.8499 12.4706 67.6022 13.045 68.5442 13.4533C69.4794 13.8547 70.4892 14.0554 71.5668 14.0554C72.6444 14.0554 73.6677 13.8547 74.603 13.4533V13.4602Z" fill="#C1C1C1"/>
<path d="M89.2213 17.5363C88.1641 17.2318 87.222 16.8443 86.4223 16.346C85.6091 15.8547 84.9178 15.2664 84.3417 14.5813L86.8764 11.737C87.2491 12.1592 87.6964 12.5467 88.2251 12.9273C88.7537 13.308 89.3907 13.6332 90.1362 13.917C90.8749 14.2007 91.7221 14.346 92.6573 14.346C93.5451 14.346 94.3313 14.2076 95.0361 13.9377C95.7274 13.6747 96.2695 13.3702 96.6491 13.0104C97.0286 12.6505 97.2251 12.346 97.2251 12.0831C97.2251 11.7786 97.0625 11.5502 96.7439 11.391C96.4254 11.2318 95.9646 11.1211 95.3546 11.045C94.7447 10.9689 94.067 10.9066 93.3079 10.8651C92.576 10.8235 91.8237 10.7682 91.0579 10.6851C90.2853 10.6021 89.533 10.4637 88.8011 10.2768C88.0827 10.09 87.4254 9.80624 86.8222 9.42561C86.219 9.04499 85.7514 8.5398 85.399 7.90312C85.0398 7.27336 84.8636 6.4706 84.8636 5.50866C84.8636 4.54672 85.1821 3.64707 85.8192 2.8097C86.4562 1.97233 87.3508 1.29412 88.5165 0.782014C89.6889 0.269903 91.0715 0.00692749 92.6709 0.00692749C93.8975 0.00692749 94.9954 0.145336 95.951 0.415232C96.9066 0.698969 97.7537 1.05883 98.4653 1.50866C99.1837 1.95156 99.8343 2.49828 100.431 3.13496L97.8622 5.76471C97.3878 5.32181 96.9269 4.96887 96.4729 4.67129C96.0323 4.38063 95.5173 4.13842 94.9209 3.95848C94.3245 3.77163 93.6061 3.68859 92.7386 3.68859C91.6475 3.68859 90.6716 3.88928 89.8245 4.29759C88.9705 4.70589 88.5504 5.11419 88.5504 5.51558C88.5504 5.87544 88.7333 6.15918 89.0925 6.35295C89.4653 6.55364 89.9871 6.71281 90.6581 6.81662C91.329 6.92042 92.0745 7.00347 92.9013 7.07959C93.8094 7.16264 94.7311 7.26644 95.6596 7.41869C96.5948 7.56402 97.4623 7.79932 98.262 8.12457C99.0617 8.44983 99.7259 8.93426 100.241 9.56402C100.756 10.1938 101 11.0381 101 12.0969C101 13.1557 100.668 14.1038 100.011 15.0104C99.3396 15.917 98.3976 16.6367 97.1506 17.1972C95.9036 17.744 94.4126 18.0138 92.6777 18.0138C91.4307 18.0138 90.2785 17.8547 89.2213 17.5502V17.5363Z" fill="#C1C1C1"/>
</g>
<defs>
<clipPath id="clip0_1_33">
<rect width="101" height="18" fill="white"/>
</clipPath>
</defs>
</svg>
