<svg width="36" height="39" viewBox="0 0 36 39" fill="none" xmlns="http://www.w3.org/2000/svg">
<rect width="36" height="39" fill="#00F729"/>
<path d="M14.858 24.154C13.9713 24.154 13.192 23.944 12.52 23.524C11.8573 23.104 11.3393 22.516 10.966 21.76C10.602 20.9947 10.42 20.108 10.42 19.1C10.42 18.0827 10.602 17.196 10.966 16.44C11.3393 15.684 11.8573 15.096 12.52 14.676C13.192 14.256 13.9713 14.046 14.858 14.046C15.7447 14.046 16.5193 14.256 17.182 14.676C17.854 15.096 18.372 15.684 18.736 16.44C19.1093 17.196 19.296 18.0827 19.296 19.1C19.296 20.108 19.1093 20.9947 18.736 21.76C18.372 22.516 17.854 23.104 17.182 23.524C16.5193 23.944 15.7447 24.154 14.858 24.154ZM14.858 22.194C15.3153 22.194 15.7073 22.0727 16.034 21.83C16.37 21.578 16.6267 21.2187 16.804 20.752C16.9907 20.2853 17.084 19.7347 17.084 19.1C17.084 18.456 16.9907 17.9053 16.804 17.448C16.6267 16.9813 16.37 16.6267 16.034 16.384C15.7073 16.132 15.3153 16.006 14.858 16.006C14.4007 16.006 14.004 16.132 13.668 16.384C13.3413 16.6267 13.0847 16.9813 12.898 17.448C12.7207 17.9053 12.632 18.456 12.632 19.1C12.632 19.7347 12.7207 20.2853 12.898 20.752C13.0847 21.2187 13.3413 21.578 13.668 21.83C14.004 22.0727 14.4007 22.194 14.858 22.194ZM22.2827 24V16.496L20.2527 17.308V15.348L23.1227 14.2H24.5507V24H22.2827Z" fill="#131313"/>
</svg>
