<svg width="32" height="33" viewBox="0 0 32 33" fill="none" xmlns="http://www.w3.org/2000/svg">
<path d="M29.1467 21.82L26.1233 19.67C26.6311 17.803 26.6282 15.8338 26.115 13.9683L29.1483 11.845L26.7267 7.65498L23.3533 9.19831C21.9899 7.82502 20.2826 6.84305 18.41 6.35498L18.0883 2.66664H13.245L12.9233 6.35498C11.0511 6.84372 9.34443 7.82627 7.98167 9.19998L4.60667 7.65664L2.18667 11.8466L5.22 13.97C4.70654 15.8348 4.70308 17.8033 5.21 19.67L2.18667 21.82L4.60667 25.99L7.98167 24.445C9.34462 25.8181 11.0513 26.8 12.9233 27.2883L13.245 30.9766H18.0883L18.41 27.2883C20.282 26.8 21.9887 25.818 23.3517 24.445L26.7267 25.99L29.1483 21.8216L29.1467 21.82ZM19.0083 0.974976C19.2229 0.974749 19.4292 1.05727 19.5844 1.20535C19.7397 1.35343 19.8318 1.55567 19.8417 1.76998L20.1383 5.16164C21.3704 5.63116 22.5198 6.2939 23.5433 7.12498L26.6267 5.68664C26.8171 5.58866 27.038 5.56776 27.2434 5.62827C27.4488 5.68878 27.6231 5.82607 27.73 6.01164L31.0717 11.795C31.179 11.9804 31.2109 12.2 31.1606 12.4082C31.1103 12.6165 30.9818 12.7973 30.8017 12.9133L28.0117 14.8666C28.225 16.1966 28.2183 17.5216 28.0133 18.7983L30.8017 20.7483C30.9822 20.8643 31.1111 21.0455 31.1614 21.2541C31.2117 21.4628 31.1795 21.6828 31.0717 21.8683L27.73 27.63C27.6231 27.8156 27.4488 27.9528 27.2434 28.0134C27.038 28.0739 26.8171 28.053 26.6267 27.955L23.5433 26.5166C22.54 27.3333 21.3967 28 20.1383 28.4816L19.8417 31.8733C19.8314 32.0873 19.7391 32.2891 19.5839 32.4369C19.4287 32.5846 19.2226 32.6669 19.0083 32.6666H12.325C12.1107 32.6669 11.9046 32.5846 11.7494 32.4369C11.5943 32.2891 11.502 32.0873 11.4917 31.8733L11.195 28.4816C9.96289 28.0115 8.8135 27.3482 7.79 26.5166L4.70667 27.955C4.51626 28.0536 4.29516 28.075 4.08935 28.0148C3.88354 27.9546 3.70887 27.8174 3.60167 27.6316L0.261667 21.8666C0.154297 21.6813 0.122444 21.4617 0.172721 21.2534C0.222998 21.0452 0.351542 20.8643 0.531667 20.7483L3.32 18.7966C3.11119 17.4944 3.11119 16.1672 3.32 14.865L0.533334 12.9133C0.35365 12.7974 0.225413 12.6168 0.175156 12.4089C0.124899 12.2011 0.156469 11.9819 0.263334 11.7966L3.6 6.01164C3.70693 5.82564 3.88148 5.68805 4.08731 5.62751C4.29315 5.56697 4.51439 5.58815 4.705 5.68664L7.78833 7.12498C8.8119 6.2939 9.96129 5.63116 11.1933 5.16164L11.49 1.76998C11.4999 1.55567 11.592 1.35343 11.7472 1.20535C11.9025 1.05727 12.1088 0.974749 12.3233 0.974976H19.0067H19.0083ZM15.6667 11C17.2138 11 18.6975 11.6146 19.7915 12.7085C20.8854 13.8025 21.5 15.2862 21.5 16.8333C21.5 18.3804 20.8854 19.8641 19.7915 20.9581C18.6975 22.0521 17.2138 22.6666 15.6667 22.6666C14.1196 22.6666 12.6358 22.0521 11.5419 20.9581C10.4479 19.8641 9.83333 18.3804 9.83333 16.8333C9.83333 15.2862 10.4479 13.8025 11.5419 12.7085C12.6358 11.6146 14.1196 11 15.6667 11ZM15.6667 12.6666C14.5616 12.6666 13.5018 13.1056 12.7204 13.887C11.939 14.6684 11.5 15.7282 11.5 16.8333C11.5 17.9384 11.939 18.9982 12.7204 19.7796C13.5018 20.561 14.5616 21 15.6667 21C16.7717 21 17.8315 20.561 18.6129 19.7796C19.3943 18.9982 19.8333 17.9384 19.8333 16.8333C19.8333 15.7282 19.3943 14.6684 18.6129 13.887C17.8315 13.1056 16.7717 12.6666 15.6667 12.6666V12.6666Z" fill="#00F729"/>
</svg>
