<svg width="22" height="32" viewBox="0 0 22 32" fill="none" xmlns="http://www.w3.org/2000/svg">
<path d="M15.3333 28.3333C15.3333 29.2174 14.9821 30.0652 14.357 30.6903C13.7319 31.3155 12.8841 31.6667 12 31.6667H10.3333C9.44927 31.6667 8.60143 31.3155 7.97631 30.6903C7.35119 30.0652 7 29.2174 7 28.3333H8.66666C8.66666 28.7754 8.84226 29.1993 9.15482 29.5118C9.46738 29.8244 9.8913 30 10.3333 30H12C12.442 30 12.8659 29.8244 13.1785 29.5118C13.4911 29.1993 13.6667 28.7754 13.6667 28.3333H15.3333ZM17 23.3333C17 24.2174 16.6488 25.0652 16.0237 25.6903C15.3986 26.3155 14.5507 26.6667 13.6667 26.6667H8.66666C7.78261 26.6667 6.93476 26.3155 6.30964 25.6903C5.68452 25.0652 5.33333 24.2174 5.33333 23.3333V19.9633C3.35895 18.7017 1.84682 16.8339 1.02374 14.6402C0.200666 12.4464 0.111007 10.045 0.768214 7.79597C1.42542 5.54696 2.79407 3.57165 4.66888 2.16629C6.54369 0.760929 8.8236 0.00128174 11.1667 0.00128174C13.5097 0.00128174 15.7896 0.760929 17.6644 2.16629C19.5393 3.57165 20.9079 5.54696 21.5651 7.79597C22.2223 10.045 22.1327 12.4464 21.3096 14.6402C20.4865 16.8339 18.9744 18.7017 17 19.9633V23.3333ZM7 23.3333C7 23.7754 7.17559 24.1993 7.48815 24.5118C7.80071 24.8244 8.22463 25 8.66666 25H13.6667C14.1087 25 14.5326 24.8244 14.8452 24.5118C15.1577 24.1993 15.3333 23.7754 15.3333 23.3333V19C17.1669 18.0643 18.6322 16.5387 19.4931 14.6689C20.354 12.799 20.5606 10.6938 20.0794 8.69233C19.5982 6.69084 18.4574 4.90957 16.8406 3.6354C15.2238 2.36124 13.2252 1.66836 11.1667 1.66836C9.10814 1.66836 7.10954 2.36124 5.49276 3.6354C3.87597 4.90957 2.73511 6.69084 2.25394 8.69233C1.77276 10.6938 1.97928 12.799 2.84023 14.6689C3.70117 16.5387 5.16643 18.0643 7 19V23.3333Z" fill="#00F729"/>
</svg>
